# xmcd
# Track frame offsets:
# 150
# 14453
# 27336
# 36804
# 54836
# 67151
# 80550
# 95319
# 110052
# 124432
#
# Disc length: 1845 seconds
# Revision: 0
# Processed by: cddbd v1.5.2PL0 Copyright (c) Steve Scherf et al.
# Submitted via: VisiTrax 2.10.3.257 - For more info visit www.synapsa.com
#
DISCID=8607330a
DTITLE=Barbara Dex - Only One Me (Nederlandstalige versie)
DYEAR=2008
DGENRE=Vlaams
TTITLE0=Er Is Maar Eén Wij
TTITLE1=Ik Wis Je Niet Zomaar Weg
TTITLE2=Mag Ik Nu Bij Jou Zijn
TTITLE3=Onderuit
TTITLE4=In Jouw Bed
TTITLE5=Eenvoudig Bij Jou Te Zijn
TTITLE6=Gewond Binnenin
TTITLE7=Foto Van M'n Hart
TTITLE8=Ik Wacht Op Jou
TTITLE9=Ik Denk Weer Aan Jou
EXTD=
EXTT0=
EXTT1=
EXTT2=
EXTT3=
EXTT4=
EXTT5=
EXTT6=
EXTT7=
EXTT8=
EXTT9=
PLAYORDER=
